# xmcd
#
# Track frame offsets:
#	150
#	5306
#	11883
#	19104
#	25682
#	34318
#
# Disc length: 543 seconds
#
# Revision: 0
# Processed by: cddbd v1.5.2PL0 Copyright (c) Steve Scherf et al.
# Submitted via: audiograbber 1.83.01
#
DISCID=3b021d06
DTITLE=Jochem en Marco - Wedding March
DYEAR=2006
DGENRE=Blues
TTITLE0=Just Guitar - Overdrive
TTITLE1=Guitar - Slow
TTITLE2=Guitar - Overdrive - Echo
TTITLE3=Guitar - Drums - Overdrive
TTITLE4=Drums - Guitar - distortion - hendrix
TTITLE5=Wawa - Guitar - drums
EXTD=
EXTT0=
EXTT1=
EXTT2=
EXTT3=
EXTT4=
EXTT5=
PLAYORDER=
